<svg width="20" height="19" viewBox="0 0 20 19" fill="none" xmlns="http://www.w3.org/2000/svg">
<path d="M10.2949 5.01984C10.7037 5.01996 11.035 5.3513 11.0352 5.76007V6.03351C11.0352 6.29168 11.2447 6.50128 11.5029 6.50128C11.761 6.50133 11.9705 6.71007 11.9707 6.96808V7.49835C11.9704 7.76551 11.7535 7.98172 11.4863 7.98175C11.2322 7.98175 11.0209 8.17848 11.0029 8.43195L10.3525 17.6058C10.3153 18.1292 9.88023 18.5345 9.35547 18.5345H3.31543C2.81076 18.5345 2.3844 18.1584 2.32227 17.6575L1.1875 8.50421C1.1504 8.20592 0.896318 7.98175 0.595703 7.98175C0.266697 7.9817 0 7.71506 0 7.38605V7.06183C0.000118123 6.75203 0.251702 6.50128 0.561523 6.50128C0.87123 6.50106 1.12207 6.24952 1.12207 5.93976V5.76007C1.12224 5.35138 1.45363 5.02009 1.8623 5.01984H10.2949ZM6.17188 9.64874C4.9326 9.64891 3.92798 10.6428 3.92773 11.8694C3.92773 13.0963 4.93244 14.091 6.17188 14.0911C7.41145 14.0911 8.41699 13.0964 8.41699 11.8694C8.41675 10.6427 7.4113 9.64874 6.17188 9.64874Z" fill="white"/>
<path d="M18.1141 18.5349H5.05451C4.50223 18.5349 4.05451 18.0871 4.05451 17.5349V15.0942C4.05451 14.5419 4.50223 14.0942 5.05451 14.0942H7.69299C8.16168 14.0942 8.5675 13.7687 8.66917 13.3111L9.18246 11.0013C9.23709 10.7555 9.19695 10.4981 9.07005 10.2805L8.17286 8.7425C8.01147 8.46583 7.7273 8.28321 7.40858 8.25134L4.95501 8.00598C4.44381 7.95486 4.05451 7.52469 4.05451 7.01094V4.0545C4.05451 3.52135 4.48672 3.08914 5.01987 3.08914C5.55302 3.08914 5.72276 4.0545 6.37137 4.0545C7.14366 4.0545 7.33673 3.08914 7.91594 3.08914C9.07437 3.08914 8.87833 4.09446 9.65359 4.0545C10.364 4.01788 10.4878 3.12576 11.1982 3.08914C11.9734 3.04918 12.1595 4.0545 12.9358 4.0545C13.7121 4.0545 13.8972 3.08914 14.6734 3.08914C15.4497 3.08914 15.6358 4.09446 16.4111 4.0545C17.1215 4.01788 17.3764 3.08914 17.9557 3.08914H18.1141C18.6664 3.08914 19.1141 3.53686 19.1141 4.08914V17.5349C19.1141 18.0871 18.6664 18.5349 18.1141 18.5349Z" fill="white" fill-opacity="0.4"/>
<path d="M18.5349 0H4.24758C3.71443 0 3.28223 0.432205 3.28223 0.965357C3.28223 1.49851 3.71442 1.93071 4.24757 1.93071H4.8268C5.40601 1.93071 5.66664 2.60647 6.37137 2.50993C6.95481 2.43001 7.32706 1.93071 7.91594 1.93071C9.07437 1.93071 8.91176 2.73672 9.65359 2.703C10.3273 2.67238 10.5238 1.93071 11.1982 1.93071C12.1635 1.93071 12.3566 2.703 12.9358 2.703C13.515 2.703 13.9308 1.93071 14.6734 1.93071C15.416 1.93071 15.6693 2.73672 16.4111 2.703C17.0848 2.67238 17.4119 1.93071 17.9557 1.93071H18.5349C19.068 1.93071 19.5002 1.49851 19.5002 0.965357C19.5002 0.432205 19.068 0 18.5349 0Z" fill="white" fill-opacity="0.4"/>
</svg>
