<svg width="16" height="17" viewBox="0 0 16 17" fill="none" xmlns="http://www.w3.org/2000/svg">
<path d="M8.94512 9.08333V0.75H0.75V15.75H8.94512V9.08333ZM8.94512 9.08333H10.6524C10.9939 9.08333 11.6768 9.35 11.6768 10.4167C11.6768 11.4833 11.6768 13.0833 11.6768 13.75C12.0183 15.0833 14.4085 15.4167 14.75 13.75V5.75M12.0183 0.75L13.8145 2.94181M13.8145 2.94181L14.75 4.08333V5.75M13.8145 2.94181C12.6467 3.1001 11.3354 4.08333 12.0183 5.41667C12.7012 6.75 14.4085 6.30556 14.75 5.75M2.79878 7.75V4.08333H7.2378V7.75H2.79878ZM4.84756 10.0833C3.48171 11.1944 2.45732 13.75 4.84756 13.75C6.89634 13.75 6.21341 11.4167 4.84756 10.0833Z" stroke="#10B24A" stroke-width="1.5" stroke-linejoin="round"/>
</svg>
