<svg width="13" height="18" viewBox="0 0 13 18" fill="none" xmlns="http://www.w3.org/2000/svg">
<path d="M6.30686 1.87499C5.26709 1.87499 4.51141 2.11079 4.03982 2.58238C3.57391 3.04829 3.34095 3.66477 3.34095 4.43181H1.05686C1.05686 3.65908 1.22732 2.93749 1.56823 2.26704C1.90914 1.5909 2.46311 1.04545 3.23016 0.630676C3.9972 0.210221 5.02277 -6.19888e-06 6.30686 -6.19888e-06C7.36368 -6.19888e-06 8.26141 0.153403 9.00004 0.460221C9.74436 0.767039 10.3097 1.22158 10.6961 1.82386C11.0881 2.42613 11.2841 3.17045 11.2841 4.05681C11.2841 4.38636 11.2415 4.7159 11.1563 5.04545C11.0711 5.37499 10.9375 5.69034 10.7557 5.99147C10.5739 6.29261 10.341 6.56818 10.0569 6.81818L8.11368 6.23863C8.38641 5.88068 8.63073 5.51988 8.84664 5.15624C9.06254 4.79261 9.1705 4.41477 9.1705 4.02272C9.1705 3.37499 8.93186 2.85511 8.45459 2.46306C7.97732 2.07102 7.26141 1.87499 6.30686 1.87499ZM12.5114 8.01136H4.44055e-05V6.13636H12.5114V8.01136ZM12.5114 11.5568H4.44055e-05V9.68181H12.5114V11.5568ZM6.23868 17.9318C4.60232 17.9318 3.30686 17.5824 2.35232 16.8835C1.39777 16.1847 0.920499 15.1704 0.920499 13.8409C0.920499 13.5114 0.968794 13.179 1.06539 12.8437C1.16766 12.5028 1.31539 12.1847 1.50857 11.8892C1.70743 11.5881 1.95459 11.3295 2.25004 11.1136L4.43186 11.3864C3.97164 11.7954 3.64493 12.1932 3.45175 12.5795C3.26425 12.9602 3.1705 13.3807 3.1705 13.8409C3.1705 14.5057 3.4347 15.0312 3.96311 15.4176C4.49152 15.7983 5.25004 15.9886 6.23868 15.9886C7.15914 15.9886 7.91766 15.7983 8.51425 15.4176C9.11084 15.0312 9.40914 14.4034 9.40914 13.5341H11.6932C11.6932 14.5341 11.4631 15.3608 11.0029 16.0142C10.5427 16.6619 9.90345 17.1449 9.08527 17.4631C8.26709 17.7756 7.31823 17.9318 6.23868 17.9318Z" fill="white"/>
</svg>
