<svg width="17" height="19" viewBox="0 0 17 19" fill="none" xmlns="http://www.w3.org/2000/svg">
<path d="M9.53049 10.1944V0.75H0.75V17.75H9.53049V10.1944ZM9.53049 10.1944H11.3598C11.7256 10.1944 12.4573 10.4967 12.4573 11.7056C12.4573 12.9144 12.4573 14.7278 12.4573 15.4833C12.8232 16.9944 15.3841 17.3722 15.75 15.4833V6.41667M12.8232 0.75L14.7477 3.23405M14.7477 3.23405L15.75 4.52778V6.41667M14.7477 3.23405C13.4964 3.41344 12.0915 4.52778 12.8232 6.03889C13.5549 7.55 15.3841 7.0463 15.75 6.41667M2.94512 8.68333V4.52778H7.70122V8.68333H2.94512ZM5.14024 11.3278C3.67683 12.587 2.57927 15.4833 5.14024 15.4833C7.33537 15.4833 6.60366 12.8389 5.14024 11.3278Z" stroke="white" stroke-width="1.5" stroke-linejoin="round"/>
</svg>
